<?xml version="1.0" encoding="UTF-8"?>
<svg width="99px" height="29px" viewBox="0 0 99 29" version="1.1" xmlns="http://www.w3.org/2000/svg" xmlns:xlink="http://www.w3.org/1999/xlink">
    <!-- Generator: Sketch 51.3 (57544) - http://www.bohemiancoding.com/sketch -->
    <title>logo-api</title>
    <desc>Created with Sketch.</desc>
    <defs></defs>
    <g id="Page-1" stroke="none" stroke-width="1" fill="none" fill-rule="evenodd">
        <g id="logo-api" transform="translate(-1.000000, -1.000000)">
            <rect id="bg" x="0" y="0" width="100" height="31"></rect>
            <path d="M13.1579833,29.199422 L9.65496571,29.199422 L9.65496571,15.0974511 L13.1579833,15.0974511 L13.1579833,29.199422 Z M8.27539453,21.5865696 L6.11639811,21.5865696 L6.11639811,29.199422 L2.6129983,29.199422 L2.6129983,21.5865696 L1.26935942,21.5865696 L1.26935942,19.8464449 L2.68486291,18.9763825 L2.68486291,18.8039168 C2.68486291,17.4504865 2.95817779,16.4779501 3.50480755,15.885921 C4.05105505,15.2935052 4.92757395,14.997684 6.13398201,14.997684 C6.59995521,14.997684 7.04069934,15.0336466 7.45544989,15.1063451 C7.8705827,15.178657 8.35299302,15.3058794 8.90268084,15.4868524 L8.15001372,17.7799501 C7.71997282,17.6593015 7.29872388,17.5985904 6.88664913,17.5985904 C6.61792136,17.5985904 6.42220497,17.6817297 6.29988223,17.8480083 C6.17755948,18.0142869 6.11639811,18.2845863 6.11639811,18.6589064 L6.11639811,18.9311393 L8.27539453,18.9311393 L8.27539453,21.5865696 Z" id="Shape" fill="#FFFFFF" fill-rule="nonzero"></path>
            <path d="M25.2709929,24.0424657 C25.2709929,25.7222661 24.8245149,27.032 23.9315589,27.9716674 C23.0386028,28.910948 21.7889996,29.3807817 20.1819845,29.3807817 C18.6411002,29.3807817 17.415197,28.9005073 16.5042748,27.9395717 C15.5937349,26.9790229 15.1380827,25.6801164 15.1380827,24.0424657 C15.1380827,22.3688524 15.5845607,21.0683992 16.4775167,20.141106 C17.3704727,19.2134262 18.6231341,18.7497796 20.235883,18.7497796 C21.2331956,18.7497796 22.1143016,18.964395 22.8788187,19.3932391 C23.6433359,19.8220832 24.2331609,20.4369272 24.6482937,21.2373846 C25.0634265,22.0382287 25.2709929,22.9732557 25.2709929,24.0424657 Z M18.6949987,24.0424657 C18.6949987,24.9249023 18.8112053,25.5969771 19.044383,26.0590769 C19.2771785,26.5215634 19.6686113,26.75242 20.2179168,26.75242 C20.7614885,26.75242 21.1452761,26.5215634 21.3692796,26.0590769 C21.5932832,25.5969771 21.7052849,24.9249023 21.7052849,24.0424657 C21.7052849,23.1666029 21.5917541,22.5049688 21.3646925,22.0579501 C21.137631,21.6105447 20.7496385,21.3870353 20.1999507,21.3870353 C19.6624951,21.3870353 19.2771785,21.6089979 19.044383,22.0533098 C18.8112053,22.4972349 18.6949987,23.1604158 18.6949987,24.0424657 Z" id="Shape" fill="#FFFFFF" fill-rule="nonzero"></path>
            <path d="M35.6031884,29.3452058 L34.4564127,24.4512017 L34.1876849,22.9740291 L34.0084057,21.7864906 L33.9548895,21.7864906 C33.6620794,23.4782786 33.464834,24.5447817 33.3635355,24.986 L32.3329663,29.3452058 L28.6510518,29.3452058 L25.8823529,19.0769231 L29.3318543,19.0769231 L30.1560038,23.0192723 C30.4189977,24.3727027 30.5711366,25.4964366 30.6128028,26.3908607 L30.6667012,26.3908607 C30.6846674,25.8347942 30.8490386,24.7775717 31.1594325,23.2188067 L32.1001709,19.0769231 L35.9705389,19.0769231 L36.8306207,23.2729439 C37.1054646,24.6081996 37.2786277,25.6476341 37.3501101,26.3908607 L37.4040086,26.3908607 C37.4399409,25.9314678 37.4995732,25.3591601 37.5832878,24.6731642 C37.6670025,23.9875551 37.759509,23.4361289 37.8608075,23.0192723 L38.7568216,19.0769231 L42.1344584,19.0769231 L39.3481757,29.3452058 L35.6031884,29.3452058 Z" id="Shape" fill="#FFFFFF" fill-rule="nonzero"></path>
            <path d="M42.4279044,27.6951809 C42.4279044,27.1391143 42.5907465,26.7102703 42.9160486,26.408262 C43.2417329,26.1058669 43.714969,25.9550561 44.3361392,25.9550561 C44.9274932,25.9550561 45.3812341,26.1058669 45.6977442,26.408262 C46.0146366,26.7102703 46.1728916,27.1391143 46.1728916,27.6951809 C46.1728916,28.2388732 46.0100494,28.6634636 45.6843651,28.9685655 C45.3590631,29.2736674 44.909527,29.4260249 44.3361392,29.4260249 C43.7447852,29.4260249 43.278812,29.2752141 42.9386018,28.9728191 C42.5980094,28.6708108 42.4279044,28.2450603 42.4279044,27.6951809 Z" id="Shape" fill="#FFFFFF" fill-rule="nonzero"></path>
            <path d="M50.3200148,22.672218 C46.4228887,20.9332533 43.6996786,16.9889706 43.6996786,12.4062554 C43.6996786,6.21721177 48.6671288,1.19211821 54.7851772,1.19211821 C60.9036079,1.19211821 65.8706758,6.21721177 65.8706758,12.4062554 C65.8706758,18.5956858 60.9036079,23.6203926 54.7851772,23.6203926 C54.4377042,23.6203926 54.0936715,23.6045382 53.7542259,23.5724425 C52.1403302,26.4208334 48.5084915,26.7646047 48.5084915,26.7646047 C50.1204759,25.9134904 50.3444794,23.8930122 50.3200148,22.672218 Z" id="Shape" fill="#E50770" fill-rule="nonzero"></path>
            <path d="M54.2423701,16.3661954 L53.8222679,15.5166279 L53.7775436,15.5166279 C53.4828223,15.8866944 53.1819848,16.1395925 52.8761779,16.2757089 C52.5699888,16.4114387 52.1743512,16.4794969 51.6888828,16.4794969 C51.0917949,16.4794969 50.6212346,16.2985239 50.2779664,15.9358046 C49.9343159,15.5734719 49.7626818,15.063422 49.7626818,14.4064283 C49.7626818,13.7227526 49.9977709,13.2138628 50.4683312,12.8797588 C50.9385092,12.5456549 51.6200763,12.3577214 52.5122678,12.3163451 L53.5703595,12.282316 L53.5703595,12.1914428 C53.5703595,11.6628316 53.3127172,11.3987193 52.7978149,11.3987193 C52.3348998,11.3987193 51.7469861,11.557264 51.0336916,11.8743534 L50.4010537,10.4130353 C51.1403417,10.0278877 52.0734349,9.83531393 53.2007154,9.83531393 C54.0145439,9.83531393 54.6445061,10.0391019 55.0906018,10.4470644 C55.5366976,10.8546403 55.7599366,11.4250146 55.7599366,12.1578004 L55.7599366,16.3661954 L54.2423701,16.3661954 Z M52.6185356,14.9160915 C52.8834408,14.9160915 53.1101202,14.8314054 53.2989559,14.6612599 C53.4874094,14.491501 53.581445,14.2703119 53.581445,13.9984657 L53.581445,13.5000166 L53.0776282,13.5228316 C52.3570708,13.5491268 51.9969832,13.8174927 51.9969832,14.3271559 C51.9969832,14.7196507 52.2041673,14.9160915 52.6185356,14.9160915 Z" id="Shape" fill="#FFFFFF" fill-rule="nonzero"></path>
            <path d="M59.4498786,16.3661954 L57.2603015,16.3661954 L57.2603015,9.94861538 L59.4498786,9.94861538 L59.4498786,16.3661954 Z M57.2044917,8.35118087 C57.2044917,8.0186237 57.2958515,7.77152599 57.4789534,7.60911435 C57.661673,7.4467027 57.9567766,7.36549688 58.3634997,7.36549688 C58.7706051,7.36549688 59.0672377,7.44863617 59.2537799,7.61452807 C59.4407044,7.78080665 59.5339755,8.02635759 59.5339755,8.35118087 C59.5339755,9.00044075 59.1436895,9.32526403 58.3634997,9.32526403 C57.5909551,9.32526403 57.2044917,9.00044075 57.2044917,8.35118087 Z" id="Shape" fill="#FFFFFF" fill-rule="nonzero"></path>
            <path d="M82.1847059,29.6884615 L81.2047059,26.8305 L75.2447059,26.8305 L74.2647059,29.6884615 L71.7647059,29.6884615 L76.8447059,15.5 L79.6047059,15.5 L84.6647059,29.6884615 L82.1847059,29.6884615 Z M76.0047059,24.6414231 L80.4447059,24.6414231 L78.2247059,18.2363462 L76.0047059,24.6414231 Z M91.0330392,15.5 C93.6730392,15.5 95.6730392,17.5269231 95.6730392,20.1619231 C95.6730392,22.7766538 93.6730392,24.8238462 91.0330392,24.8238462 L88.1730392,24.8238462 L88.1730392,29.6884615 L85.8730392,29.6884615 L85.8730392,15.5 L91.0330392,15.5 Z M91.0330392,22.6347692 C92.3930392,22.6347692 93.3730392,21.5807692 93.3730392,20.1619231 C93.3730392,18.7228077 92.3930392,17.6890769 91.0330392,17.6890769 L88.1730392,17.6890769 L88.1730392,22.6347692 L91.0330392,22.6347692 Z M97.3813726,15.5 L99.6813726,15.5 L99.6813726,29.6884615 L97.3813726,29.6884615 L97.3813726,15.5 Z" id="API-Copy" fill-opacity="0.85" fill="#FFFFFF"></path>
        </g>
    </g>
</svg>