<?xml version="1.0" encoding="UTF-8"?>
<svg width="540px" height="256px" viewBox="0 0 540 256" version="1.1" xmlns="http://www.w3.org/2000/svg" xmlns:xlink="http://www.w3.org/1999/xlink">
    <!-- Generator: Sketch 51.3 (57544) - http://www.bohemiancoding.com/sketch -->
    <title>receiving</title>
    <desc>Created with Sketch.</desc>
    <defs></defs>
    <g id="Page-1" stroke="none" stroke-width="1" fill="none" fill-rule="evenodd">
        <g id="inbound-copy" transform="translate(0.000000, -350.000000)">
            <g id="receiving" transform="translate(19.000000, 417.000000)">
                <g id="Group" transform="translate(0.000000, 33.000000)">
                    <g id="Dimmed">
                        <rect id="Rectangle" fill="#4C4C54" fill-rule="evenodd" x="16" y="0" width="64" height="64" rx="18.4"></rect>
                        <text id="Slack" font-family="Gilroy-Regular, Gilroy" font-size="14.4" font-weight="normal" fill="#000000">
                            <tspan x="17.5368" y="90.6">Your app</tspan>
                        </text>
                    </g>
                    <g id="Flow" transform="translate(395.000000, 0.000000)">
                        <rect id="Rectangle" fill="#E50770" fill-rule="evenodd" x="21.5" y="0" width="64" height="64" rx="18.4"></rect>
                        <text id="Flow.ai" font-family="Gilroy-Regular, Gilroy" font-size="14.4" font-weight="normal" fill="#000000">
                            <tspan x="30.6832" y="90.6">Flow.ai </tspan>
                            <tspan x="5.5192" y="106.6">Messaging API</tspan>
                        </text>
                    </g>
                    <text id="HTTP-POST-/your-webh" font-family="Gilroy-Regular, Gilroy" font-size="14" font-weight="normal" fill="#000000">
                        <tspan x="200" y="74">HTTP POST </tspan>
                        <tspan x="200" y="90" font-family="Gilroy-Bold, Gilroy" font-weight="bold">/your-webhook</tspan>
                        <tspan x="302.858" y="90"> </tspan>
                    </text>
                </g>
                <text id="Receiving-replies-fr" font-family="Gilroy-Medium, Gilroy" font-size="15" font-weight="400" fill="#000000" fill-opacity="0.7">
                    <tspan x="149" y="14">Receiving replies from Flow.ai</tspan>
                </text>
                <path d="M121.53828,60.7374621 L110.033296,68.3003882 L109.912865,66.5614023 L122.350536,72.4662189 C122.84945,72.7030798 123.061886,73.2995433 122.825025,73.7984575 C122.588164,74.2973717 121.991701,74.509808 121.492787,74.2729471 L109.055116,68.3681305 C108.350676,68.0336956 108.283071,67.0574908 108.934686,66.6291445 L120.439669,59.0662184 C120.901171,58.7628455 121.521224,58.8910339 121.824596,59.3525351 C122.127969,59.8140363 121.999781,60.4340893 121.53828,60.7374621 Z M395.28737,68.4099318 C307.54625,61.5769951 216.266198,61.3197768 121.447049,67.638676 L110.301287,68.410561 C109.750322,68.4487172 109.272744,68.0330035 109.234588,67.4820383 C109.196432,66.9310732 109.612146,66.4534961 110.163111,66.4153399 L121.311467,65.6432786 C216.22744,59.3179236 307.603692,59.5754129 395.442652,66.4159691 C395.99327,66.458849 396.404873,66.9399739 396.361993,67.4905915 C396.319113,68.0412091 395.837988,68.4528118 395.28737,68.4099318 Z" id="Path-12-Copy" fill="#000000" fill-rule="nonzero"></path>
            </g>
        </g>
    </g>
</svg>