<?xml version="1.0" encoding="UTF-8"?>
<svg width="540px" height="256px" viewBox="0 0 540 256" version="1.1" xmlns="http://www.w3.org/2000/svg" xmlns:xlink="http://www.w3.org/1999/xlink">
    <!-- Generator: Sketch 51.3 (57544) - http://www.bohemiancoding.com/sketch -->
    <title>sending</title>
    <desc>Created with Sketch.</desc>
    <defs></defs>
    <g id="Page-1" stroke="none" stroke-width="1" fill="none" fill-rule="evenodd">
        <g id="inbound-copy">
            <g id="sending" transform="translate(19.000000, 1.000000)">
                <g id="Group-2">
                    <g id="Dimmed" transform="translate(0.000000, 99.000000)">
                        <rect id="Rectangle" fill="#4C4C54" fill-rule="evenodd" x="16" y="0" width="64" height="64" rx="18.4"></rect>
                        <text id="Slack" font-family="Gilroy-Regular, Gilroy" font-size="14.4" font-weight="normal" fill="#000000">
                            <tspan x="17.5368" y="90.6">Your app</tspan>
                        </text>
                    </g>
                    <g id="Flow" transform="translate(395.000000, 99.000000)">
                        <rect id="Rectangle" fill="#E50770" fill-rule="evenodd" x="21.5" y="0" width="64" height="64" rx="18.4"></rect>
                        <text id="Flow.ai" font-family="Gilroy-Regular, Gilroy" font-size="14.4" font-weight="normal" fill="#000000">
                            <tspan x="30.6832" y="90.6">Flow.ai </tspan>
                            <tspan x="5.5192" y="106.6">Messaging API</tspan>
                        </text>
                    </g>
                    <text id="HTTP-POST-/messaging" font-family="Gilroy-Regular, Gilroy" font-size="14" font-weight="normal" fill="#000000">
                        <tspan x="183" y="173">HTTP POST </tspan>
                        <tspan x="183" y="189" font-family="Gilroy-Bold, Gilroy" font-weight="bold">/messaging/v1/send </tspan>
                    </text>
                    <path d="M383.014476,131.990357 L395.452146,137.895174 L395.331715,136.156188 L383.826732,143.719114 C383.36523,144.022487 383.237042,144.64254 383.540415,145.104041 C383.843788,145.565542 384.463841,145.69373 384.925342,145.390358 L396.430326,137.827431 C397.081941,137.399085 397.014335,136.42288 396.309895,136.088445 L383.872225,130.183629 C383.37331,129.946768 382.776847,130.159204 382.539986,130.658118 C382.303125,131.157033 382.515562,131.753496 383.014476,131.990357 Z M109.922359,138.040607 C197.761319,144.881163 289.137571,145.138652 384.05095,138.813474 L395.2019,138.041236 C395.752866,138.00308 396.168579,137.525503 396.130423,136.974538 C396.092267,136.423572 395.61469,136.007859 395.063725,136.046015 L383.915368,136.818076 C289.098813,143.136799 197.818761,142.879581 110.077641,136.046644 C109.527023,136.003764 109.045899,136.415367 109.003019,136.965984 C108.960139,137.516602 109.371741,137.997727 109.922359,138.040607 Z" id="Path-12" fill="#000000" fill-rule="nonzero"></path>
                </g>
                <text id="Sending-messages-to" font-family="Gilroy-Medium, Gilroy" font-size="15" font-weight="400" fill="#000000" fill-opacity="0.7">
                    <tspan x="151" y="91">Sending messages to Flow.ai</tspan>
                </text>
            </g>
        </g>
    </g>
</svg>